<svg xmlns="http://www.w3.org/2000/svg" viewBox="0 0 64 64">
  <defs>
    <linearGradient id="keelmark" x1="1" y1="0" x2="0" y2="1">
      <stop offset="0%" stop-color="#FF7A3D"/>
      <stop offset="100%" stop-color="#CC3300"/>
    </linearGradient>
  </defs>
  <rect width="64" height="64" rx="10" fill="#0B0B0B"/>
  <g transform="translate(2.7 0) scale(0.269) translate(-98 -400)">
    <path fill="url(#keelmark)" d="M231.823730,630.155273 C229.436981,629.663818 228.952454,627.732056 228.075119,626.181152 C203.553680,582.833374 179.057968,539.471069 154.537582,496.122681 C138.711945,468.145325 122.853897,440.186310 107.011559,412.218353 C106.359482,411.067169 105.533882,409.953430 106.170036,408.364899 C107.570267,406.915070 109.577454,407.365204 111.257660,407.439606 C126.588425,408.118408 141.900848,407.122009 157.221542,407.092712 C158.721283,407.089844 160.222397,407.146484 161.720581,407.100739 C168.360764,406.897888 172.464340,409.117310 176.122253,415.678436 C199.474731,457.565582 222.693161,499.536896 247.005463,540.885010 C252.744690,550.645813 258.067474,560.650940 263.634338,570.514038 C264.861023,572.687317 265.298828,574.557739 263.863586,576.987427 C254.037567,593.622314 244.373291,610.352661 234.616287,627.028564 C233.961884,628.146973 232.975098,629.070923 231.823730,630.155273 Z"/>
    <path fill="url(#keelmark)" d="M302.681885,508.620178 C293.969940,523.546936 285.450745,538.162476 276.114349,554.179993 C265.543518,535.485168 255.599564,517.899109 245.073486,499.283508 C266.412018,499.283508 286.370880,499.283508 306.507935,499.283508 C307.290192,503.267456 304.071716,505.391327 302.681885,508.620178 Z"/>
  </g>
</svg>